<svg xmlns="http://www.w3.org/2000/svg" width="327" height="67" viewBox="0 0 327 67" fill="none"><path d="M0 32.8594L0.0703125 23.1797H0.609375C1.26562 25.6484 2.04688 27.5938 2.95312 29.0156C4.65625 31.6406 6.79688 32.9531 9.375 32.9531C11.1719 32.9531 12.6562 32.3516 13.8281 31.1484C15 29.9453 15.5859 28.4219 15.5859 26.5781C15.5859 25.7812 15.4531 24.9688 15.1875 24.1406C14.9375 23.3125 14.5938 22.6016 14.1562 22.0078C13.7031 21.3984 13.0625 20.8125 12.2344 20.25C11.4219 19.6875 10.1719 18.9766 8.48438 18.1172C7 17.3672 5.85938 16.7344 5.0625 16.2188C4.28125 15.7031 3.64844 15.1797 3.16406 14.6484C1.82031 13.1797 1.14844 11.3906 1.14844 9.28125C1.14844 7.98438 1.40625 6.73438 1.92188 5.53125C2.45312 4.32812 3.1875 3.29688 4.125 2.4375C5.78125 0.90625 7.74219 0.140625 10.0078 0.140625C10.7422 0.140625 11.4219 0.21875 12.0469 0.375C12.6719 0.515625 13.5078 0.804688 14.5547 1.24219C15.3359 1.55469 15.8672 1.75781 16.1484 1.85156C16.4297 1.92969 16.6797 1.96875 16.8984 1.96875C17.4453 1.96875 17.8125 1.57031 18 0.773438H18.5391L18.7031 10.0781H18.1641C17.7422 8.59375 17.375 7.46094 17.0625 6.67969C16.7656 5.88281 16.4062 5.14844 15.9844 4.47656C15.2188 3.25781 14.375 2.35938 13.4531 1.78125C12.5312 1.1875 11.4688 0.890625 10.2656 0.890625C8.51562 0.890625 7.13281 1.48438 6.11719 2.67188C5.69531 3.15625 5.35938 3.72656 5.10938 4.38281C4.875 5.03906 4.75781 5.69531 4.75781 6.35156C4.75781 8.96094 6.4375 11.0625 9.79688 12.6562L13.1016 14.25C15.6484 15.4531 17.4844 16.7812 18.6094 18.2344C19.8906 19.8594 20.5312 21.75 20.5312 23.9062C20.5312 25.3438 20.2422 26.7188 19.6641 28.0312C18.8516 29.8594 17.6328 31.2734 16.0078 32.2734C14.3828 33.2578 12.4688 33.75 10.2656 33.75C8.25 33.75 6.3125 33.3516 4.45312 32.5547C3.48438 32.1328 2.90625 31.8906 2.71875 31.8281C2.53125 31.7656 2.32031 31.7344 2.08594 31.7344C1.33594 31.7344 0.820312 32.1094 0.539062 32.8594H0Z" fill="black"></path><path d="M28.7175 13.4531L35.4441 12.6094V26.1562L35.4675 27.9375C35.4675 29 35.53 29.7812 35.655 30.2812C35.78 30.7656 36.0222 31.1719 36.3816 31.5C36.8191 31.9219 37.6237 32.2422 38.7956 32.4609V32.9297H28.4597V32.4609C29.3972 32.3359 30.0691 32.1641 30.4753 31.9453C30.8816 31.7109 31.2097 31.3203 31.4597 30.7734C31.6316 30.4141 31.7487 29.875 31.8112 29.1562C31.8894 28.4219 31.9284 27.3672 31.9284 25.9922V20.2031C31.9284 18.5938 31.8894 17.4688 31.8112 16.8281C31.7331 16.1719 31.5612 15.6406 31.2956 15.2344C31.03 14.7969 30.7097 14.4844 30.3347 14.2969C29.9597 14.0938 29.4206 13.9688 28.7175 13.9219V13.4531ZM33.5925 4.24219C32.9831 4.24219 32.4753 4.04688 32.0691 3.65625C31.6784 3.26562 31.4831 2.77344 31.4831 2.17969C31.4831 1.60156 31.6862 1.11719 32.0925 0.726562C32.4987 0.320312 32.9987 0.117188 33.5925 0.117188C34.1862 0.117188 34.6862 0.320312 35.0925 0.726562C35.4987 1.11719 35.7019 1.60156 35.7019 2.17969C35.7019 2.77344 35.4987 3.26562 35.0925 3.65625C34.7019 4.04688 34.2019 4.24219 33.5925 4.24219Z" fill="black"></path><path d="M52.0444 12.6562C52.3256 13.75 52.5053 14.8359 52.5834 15.9141C53.5678 14.8672 54.6694 14.0625 55.8881 13.5C57.1225 12.9375 58.4038 12.6562 59.7319 12.6562C61.2006 12.6562 62.4272 13.0312 63.4116 13.7812C64.0053 14.2344 64.685 15.0234 65.4506 16.1484C66.6381 14.9453 67.8334 14.0625 69.0366 13.5C70.2397 12.9375 71.5366 12.6562 72.9272 12.6562C74.8022 12.6562 76.3256 13.1719 77.4975 14.2031C78.685 15.2188 79.2787 16.5547 79.2787 18.2109V26.1562L79.3022 27.9375C79.3022 29 79.3647 29.7812 79.4897 30.2812C79.6147 30.7656 79.8491 31.1719 80.1928 31.5C80.6459 31.9219 81.4584 32.2422 82.6303 32.4609V32.9297H72.2944V32.4609C73.2319 32.3359 73.8959 32.1641 74.2866 31.9453C74.6928 31.7109 75.0287 31.3203 75.2944 30.7734C75.4662 30.4141 75.5834 29.875 75.6459 29.1562C75.7241 28.4219 75.7631 27.375 75.7631 26.0156V21.5391C75.7631 19.8047 75.7084 18.5391 75.5991 17.7422C75.4897 16.9453 75.2787 16.2656 74.9662 15.7031C74.2319 14.375 72.9662 13.7109 71.1694 13.7109C69.2319 13.7109 67.8256 14.4297 66.9506 15.8672C66.185 17.1016 65.8022 19.0234 65.8022 21.6328V26.1562L65.8256 27.9375C65.8256 29 65.8881 29.7812 66.0131 30.2812C66.1381 30.7656 66.3725 31.1719 66.7162 31.5C67.1537 31.9219 67.9662 32.2422 69.1537 32.4609V32.9297H58.8178V32.4609C59.7553 32.3359 60.4194 32.1641 60.81 31.9453C61.2163 31.7109 61.5522 31.3203 61.8178 30.7734C61.9897 30.4141 62.1069 29.875 62.1694 29.1562C62.2475 28.4219 62.2866 27.375 62.2866 26.0156V21.6797C62.2866 19.8516 62.2241 18.5156 62.0991 17.6719C61.9897 16.8125 61.7709 16.1172 61.4428 15.5859C61.0991 15.0234 60.6147 14.5859 59.9897 14.2734C59.3647 13.9453 58.6616 13.7812 57.8803 13.7812C56.9897 13.7812 56.1538 13.9922 55.3725 14.4141C54.5913 14.8359 53.9741 15.4062 53.5209 16.125C53.0991 16.7656 52.7944 17.5391 52.6069 18.4453C52.435 19.3359 52.3491 20.4922 52.3491 21.9141V26.2031L52.3725 27.9375C52.3725 29 52.435 29.7812 52.56 30.2812C52.685 30.7656 52.9272 31.1719 53.2866 31.5C53.7241 31.9219 54.5288 32.2422 55.7006 32.4609V32.9297H45.3647V32.4609C46.3022 32.3359 46.9741 32.1641 47.3803 31.9453C47.7866 31.7109 48.1147 31.3203 48.3647 30.7734C48.5366 30.4141 48.6538 29.875 48.7163 29.1562C48.7944 28.4219 48.8334 27.3672 48.8334 25.9922V20.2031C48.8334 18.5938 48.7944 17.4688 48.7163 16.8281C48.6381 16.1719 48.4663 15.6406 48.2006 15.2344C47.935 14.7969 47.6147 14.4844 47.2397 14.2969C46.8647 14.0938 46.3256 13.9688 45.6225 13.9219V13.4531L52.0444 12.6562Z" fill="black"></path><path d="M96.1838 30.9609L96.2072 35.2734V36.8906C96.2072 37.9531 96.2697 38.7266 96.3947 39.2109C96.5197 39.7109 96.7619 40.1328 97.1213 40.4766C97.5588 40.8984 98.3634 41.2109 99.5353 41.4141V41.8828H89.1994V41.4141C90.1369 41.2891 90.8088 41.1172 91.215 40.8984C91.6213 40.6797 91.9494 40.2969 92.1994 39.75C92.3713 39.3906 92.4884 38.8438 92.5509 38.1094C92.6291 37.375 92.6681 36.3281 92.6681 34.9688V18.7734C92.6681 17.0078 92.3869 15.75 91.8244 15C91.2775 14.25 90.3478 13.875 89.0353 13.875V13.2891L95.8556 12.3281C96.0275 13.0781 96.1134 13.7656 96.1134 14.3906V14.8359C97.2697 14.0547 98.3556 13.5 99.3713 13.1719C100.387 12.8281 101.488 12.6562 102.676 12.6562C105.051 12.6562 107.082 13.3672 108.77 14.7891C109.832 15.6953 110.653 16.8281 111.231 18.1875C111.809 19.5469 112.098 21.0469 112.098 22.6875C112.098 24.3906 111.785 25.9766 111.16 27.4453C110.551 28.9141 109.676 30.125 108.535 31.0781C106.754 32.5938 104.637 33.3516 102.184 33.3516C101.012 33.3516 99.9963 33.1797 99.1369 32.8359C98.2931 32.4922 97.3088 31.8672 96.1838 30.9609ZM96.1838 23.1797C96.1838 25.3359 96.2775 26.9609 96.465 28.0547C96.6525 29.1484 96.9884 30.0312 97.4728 30.7031C97.9103 31.2969 98.4806 31.7734 99.1838 32.1328C99.9025 32.4922 100.629 32.6719 101.363 32.6719C103.02 32.6719 104.465 31.8906 105.699 30.3281C106.449 29.3906 107.028 28.2812 107.434 27C107.84 25.7188 108.043 24.3828 108.043 22.9922C108.043 21.6484 107.848 20.3359 107.457 19.0547C107.082 17.7578 106.551 16.6484 105.863 15.7266C104.692 14.1328 103.262 13.3359 101.574 13.3359C100.746 13.3359 99.965 13.5391 99.2306 13.9453C98.4963 14.3516 97.9103 14.9062 97.4728 15.6094C96.9884 16.3594 96.6525 17.2969 96.465 18.4219C96.2775 19.5312 96.1838 21.1172 96.1838 23.1797Z" fill="black"></path><path d="M119.745 0.84375L126.472 0V26.1562L126.495 27.9375C126.495 29 126.558 29.7812 126.683 30.2812C126.808 30.7656 127.05 31.1719 127.409 31.5C127.847 31.9219 128.651 32.2422 129.823 32.4609V32.9297H119.487V32.4609C120.425 32.3359 121.097 32.1641 121.503 31.9453C121.909 31.7109 122.237 31.3203 122.487 30.7734C122.659 30.4141 122.776 29.875 122.839 29.1562C122.917 28.4219 122.956 27.3672 122.956 25.9922V7.59375C122.956 6 122.917 4.875 122.839 4.21875C122.761 3.5625 122.589 3.03125 122.323 2.625C122.058 2.1875 121.737 1.875 121.362 1.6875C120.987 1.5 120.448 1.38281 119.745 1.33594V0.84375Z" fill="black"></path><path d="M152.243 0.9375H167.711V1.47656C166.539 1.58594 165.696 1.76562 165.18 2.01562C164.696 2.25 164.305 2.61719 164.008 3.11719C163.711 3.60156 163.563 4.13281 163.563 4.71094C163.563 5.11719 163.602 5.47656 163.68 5.78906C163.758 6.10156 163.993 6.78125 164.383 7.82812L171.321 26.6953L178.047 10.1484C178.985 7.82031 179.453 6.125 179.453 5.0625C179.453 4.46875 179.36 3.91406 179.172 3.39844C178.985 2.88281 178.735 2.48438 178.422 2.20312C178.11 1.9375 177.766 1.75 177.391 1.64062C177.016 1.53125 176.532 1.47656 175.938 1.47656V0.9375H186.368V1.47656C185.508 1.55469 184.758 1.76562 184.118 2.10938C183.493 2.45312 182.891 2.97656 182.313 3.67969C181.922 4.17969 181.508 4.86719 181.071 5.74219C180.649 6.60156 180.063 7.9375 179.313 9.75L169.703 32.9297H168.719L159.391 8.97656C158.172 5.83594 157.196 3.84375 156.461 3C155.993 2.46875 155.414 2.08594 154.727 1.85156C154.055 1.60156 153.227 1.47656 152.243 1.47656V0.9375Z" fill="black"></path><path d="M191.741 13.4531L198.468 12.6094V26.1562L198.491 27.9375C198.491 29 198.554 29.7812 198.679 30.2812C198.804 30.7656 199.046 31.1719 199.405 31.5C199.843 31.9219 200.648 32.2422 201.819 32.4609V32.9297H191.483V32.4609C192.421 32.3359 193.093 32.1641 193.499 31.9453C193.905 31.7109 194.233 31.3203 194.483 30.7734C194.655 30.4141 194.773 29.875 194.835 29.1562C194.913 28.4219 194.952 27.3672 194.952 25.9922V20.2031C194.952 18.5938 194.913 17.4688 194.835 16.8281C194.757 16.1719 194.585 15.6406 194.319 15.2344C194.054 14.7969 193.733 14.4844 193.358 14.2969C192.983 14.0938 192.444 13.9688 191.741 13.9219V13.4531ZM196.616 4.24219C196.007 4.24219 195.499 4.04688 195.093 3.65625C194.702 3.26562 194.507 2.77344 194.507 2.17969C194.507 1.60156 194.71 1.11719 195.116 0.726562C195.523 0.320312 196.023 0.117188 196.616 0.117188C197.21 0.117188 197.71 0.320312 198.116 0.726562C198.523 1.11719 198.726 1.60156 198.726 2.17969C198.726 2.77344 198.523 3.26562 198.116 3.65625C197.726 4.04688 197.226 4.24219 196.616 4.24219Z" fill="black"></path><path d="M215.045 12.6094C215.263 13.5156 215.373 14.3594 215.373 15.1406V15.5156C217.31 13.6094 219.615 12.6562 222.287 12.6562C224.287 12.6562 225.896 13.125 227.115 14.0625C228.318 14.9844 228.92 16.2969 228.92 18V27.9375C228.92 29 228.982 29.7812 229.107 30.2812C229.232 30.7656 229.474 31.1719 229.834 31.5C230.271 31.9219 231.076 32.2422 232.248 32.4609V32.9297H221.912V32.4609C222.849 32.3359 223.521 32.1641 223.928 31.9453C224.334 31.7109 224.662 31.3203 224.912 30.7734C225.084 30.4141 225.201 29.875 225.263 29.1562C225.342 28.4219 225.381 27.375 225.381 26.0156V21.0469C225.381 19.3438 225.318 18.0938 225.193 17.2969C225.084 16.5 224.865 15.8594 224.537 15.375C224.178 14.8281 223.662 14.4062 222.99 14.1094C222.318 13.7969 221.576 13.6406 220.763 13.6406C219.888 13.6406 219.068 13.8125 218.303 14.1562C217.553 14.5 216.959 14.9688 216.521 15.5625C216.053 16.1875 215.74 16.8984 215.584 17.6953C215.443 18.4766 215.373 19.7812 215.373 21.6094V26.2031L215.396 27.9375C215.396 29 215.459 29.7812 215.584 30.2812C215.709 30.7656 215.951 31.1719 216.31 31.5C216.748 31.9219 217.553 32.2422 218.724 32.4609V32.9297H208.388V32.4609C209.326 32.3359 209.998 32.1641 210.404 31.9453C210.81 31.7109 211.138 31.3203 211.388 30.7734C211.56 30.4141 211.678 29.875 211.74 29.1562C211.818 28.4219 211.857 27.3672 211.857 25.9922V20.2031C211.857 18.5938 211.818 17.4688 211.74 16.8281C211.662 16.1719 211.49 15.6406 211.224 15.2344C210.959 14.7969 210.638 14.4844 210.263 14.2969C209.888 14.0938 209.349 13.9688 208.646 13.9219V13.4531L215.045 12.6094Z" fill="black"></path><path d="M244.7 13.0078H250.676V13.8984H244.7V27.5391C244.7 29.1797 244.981 30.3516 245.543 31.0547C245.84 31.4453 246.231 31.75 246.715 31.9688C247.2 32.1875 247.723 32.2969 248.286 32.2969C248.989 32.2969 249.575 32.1562 250.043 31.875C250.512 31.5781 251.028 31.0469 251.59 30.2812L251.942 30.5859C251.426 31.5234 250.7 32.2188 249.762 32.6719C248.84 33.125 247.684 33.3516 246.293 33.3516C244.45 33.3516 243.106 32.9922 242.262 32.2734C241.809 31.8984 241.512 31.4531 241.372 30.9375C241.231 30.4062 241.161 29.4609 241.161 28.1016V13.8984H238.653V13.5234C239.668 13.1953 240.606 12.5625 241.465 11.625C241.981 11.0469 242.395 10.4766 242.708 9.91406C243.02 9.33594 243.317 8.59375 243.598 7.6875L243.833 6.91406H244.7V13.0078Z" fill="black"></path><path d="M276.441 30.6562L276.839 30.8906C276.277 32.5312 274.987 33.3516 272.972 33.3516C271.862 33.3516 270.941 33.0781 270.206 32.5312C269.722 32.1719 269.222 31.5469 268.706 30.6562C267.659 31.5938 266.87 32.2109 266.339 32.5078C265.323 33.0703 264.144 33.3516 262.8 33.3516C261.081 33.3516 259.714 32.9375 258.698 32.1094C257.698 31.2812 257.198 30.1641 257.198 28.7578C257.198 27.4609 257.612 26.375 258.441 25.5C258.909 25.0156 259.448 24.6328 260.058 24.3516C260.667 24.0547 261.55 23.7578 262.706 23.4609C264.066 23.1172 265.066 22.8281 265.706 22.5938C266.362 22.3594 266.909 22.0781 267.347 21.75C267.847 21.3906 268.191 20.9688 268.378 20.4844C268.566 20 268.659 19.3281 268.659 18.4688C268.659 16.6406 268.316 15.3047 267.628 14.4609C267.316 14.0703 266.909 13.7578 266.409 13.5234C265.925 13.2891 265.417 13.1719 264.886 13.1719C264.245 13.1719 263.675 13.3359 263.175 13.6641C262.675 13.9922 262.3 14.4453 262.05 15.0234L261.464 16.3828C261.152 17.1172 260.589 17.4844 259.777 17.4844C259.245 17.4844 258.8 17.3125 258.441 16.9688C258.081 16.6094 257.902 16.1641 257.902 15.6328C257.902 14.8359 258.464 14.1641 259.589 13.6172C260.198 13.3359 260.948 13.1094 261.839 12.9375C262.745 12.75 263.628 12.6562 264.487 12.6562C265.456 12.6562 266.464 12.7812 267.511 13.0312C268.558 13.2812 269.433 13.6016 270.136 13.9922C271.152 14.5703 271.784 15.3203 272.034 16.2422C272.159 16.7109 272.222 17.5 272.222 18.6094V27.2812C272.222 28.75 272.284 29.75 272.409 30.2812C272.675 31.3906 273.316 31.9453 274.331 31.9453C274.816 31.9453 275.191 31.8594 275.456 31.6875C275.737 31.5156 276.066 31.1719 276.441 30.6562ZM268.706 21.4219C267.862 22.125 266.933 22.7422 265.917 23.2734C264.777 23.8828 263.987 24.3438 263.55 24.6562C263.112 24.9688 262.714 25.3438 262.355 25.7812C261.62 26.6875 261.253 27.7422 261.253 28.9453C261.253 29.9766 261.534 30.8281 262.097 31.5C262.675 32.1719 263.402 32.5078 264.277 32.5078C265.042 32.5078 265.761 32.2734 266.433 31.8047C267.12 31.3203 267.636 30.6797 267.98 29.8828C268.464 28.8359 268.706 27.3203 268.706 25.3359V21.4219Z" fill="black"></path><path d="M288.025 34.9219L287.603 35.0391C287.338 34.6016 287.072 34.2969 286.807 34.125C286.541 33.9531 286.213 33.8672 285.822 33.8672C285.166 33.8672 284.627 34.1172 284.205 34.6172C283.799 35.1172 283.596 35.7656 283.596 36.5625C283.596 37.8281 284.228 38.8672 285.494 39.6797C286.76 40.4922 288.377 40.8984 290.346 40.8984C292.439 40.8984 294.127 40.4453 295.408 39.5391C296.705 38.6484 297.353 37.4844 297.353 36.0469C297.353 34.8906 296.924 34 296.064 33.375C295.205 32.7656 293.978 32.4609 292.385 32.4609H288.658C287.127 32.4609 285.893 32.1016 284.955 31.3828C283.986 30.6328 283.502 29.7344 283.502 28.6875C283.502 27.5781 284.018 26.7031 285.049 26.0625C285.58 25.75 286.549 25.4141 287.955 25.0547C286.596 24.4297 285.541 23.6094 284.791 22.5938C284.041 21.5625 283.666 20.4297 283.666 19.1953C283.666 17.6172 284.252 16.2109 285.424 14.9766C286.111 14.2422 286.924 13.6719 287.861 13.2656C288.799 12.8594 289.76 12.6562 290.744 12.6562C292.244 12.6562 293.775 13.1875 295.338 14.25C296.072 13.6719 296.728 13.2656 297.307 13.0312C297.9 12.7812 298.541 12.6562 299.228 12.6562C299.994 12.6562 300.611 12.8203 301.08 13.1484C301.643 13.5547 301.924 14.0547 301.924 14.6484C301.924 15.0078 301.814 15.3125 301.596 15.5625C301.377 15.7969 301.103 15.9141 300.775 15.9141C300.275 15.9141 299.822 15.6484 299.416 15.1172L298.877 14.4141C298.58 14.0391 298.158 13.8516 297.611 13.8516C297.033 13.8516 296.424 14.1406 295.783 14.7188C297.049 16.2656 297.682 17.8594 297.682 19.5C297.682 21.5469 296.775 23.1641 294.963 24.3516C294.057 24.9453 293.08 25.3438 292.033 25.5469C291.721 25.5938 290.728 25.6719 289.057 25.7812C286.76 25.9219 285.611 26.5625 285.611 27.7031C285.611 28.7031 286.588 29.2031 288.541 29.2031H292.408C293.768 29.2031 294.916 29.3281 295.853 29.5781C296.791 29.8125 297.611 30.1875 298.314 30.7031C299.689 31.7188 300.377 33.1484 300.377 34.9922C300.377 37.0234 299.58 38.6094 297.986 39.75C296.346 40.9219 293.939 41.5078 290.768 41.5078C287.361 41.5078 284.947 40.8203 283.525 39.4453C282.619 38.5547 282.166 37.4453 282.166 36.1172C282.166 35.0703 282.502 34.1797 283.174 33.4453C283.846 32.7266 284.666 32.3672 285.635 32.3672C286.338 32.3672 286.908 32.5781 287.346 33C287.799 33.4219 288.025 33.9766 288.025 34.6641V34.9219ZM286.994 19.3594C286.994 21.0469 287.346 22.4219 288.049 23.4844C288.768 24.5469 289.682 25.0781 290.791 25.0781C291.916 25.0781 292.791 24.5547 293.416 23.5078C294.041 22.4453 294.353 20.9766 294.353 19.1016C294.353 17.1641 293.947 15.6172 293.135 14.4609C292.541 13.6016 291.775 13.1719 290.838 13.1719C289.713 13.1719 288.807 13.7344 288.119 14.8594C287.775 15.4219 287.502 16.1094 287.299 16.9219C287.096 17.7344 286.994 18.5469 286.994 19.3594Z" fill="black"></path><path d="M312.172 20.1797C312.11 20.9453 312.079 21.5 312.079 21.8438C312.079 23.2031 312.274 24.5312 312.665 25.8281C313.071 27.125 313.618 28.2031 314.305 29.0625C315.008 29.9375 315.876 30.625 316.907 31.125C317.954 31.625 319.047 31.875 320.188 31.875C321.032 31.875 321.829 31.7344 322.579 31.4531C323.344 31.1719 323.977 30.7812 324.477 30.2812C325.04 29.7344 325.524 28.8594 325.93 27.6562L326.399 27.8203C325.993 29.6484 325.118 31.0312 323.774 31.9688C322.446 32.8906 320.672 33.3516 318.454 33.3516C316.532 33.3516 314.883 33.0469 313.508 32.4375C312.133 31.8281 310.969 30.8906 310.016 29.625C308.688 27.8594 308.024 25.6875 308.024 23.1094C308.024 19.5938 309.282 16.8359 311.797 14.8359C313.626 13.3828 315.712 12.6562 318.055 12.6562C319.305 12.6562 320.462 12.8828 321.524 13.3359C322.587 13.7734 323.485 14.4141 324.219 15.2578C325.36 16.5703 325.93 18.2109 325.93 20.1797H312.172ZM322.438 19.2656C322.329 17.7031 322.04 16.5 321.571 15.6562C321.149 14.8906 320.587 14.2891 319.883 13.8516C319.18 13.3984 318.43 13.1719 317.633 13.1719C316.29 13.1719 315.11 13.75 314.094 14.9062C313.094 16.0625 312.501 17.5156 312.313 19.2656H322.438Z" fill="black"></path><path d="M142.201 61.0005V63.6299C142.201 64.1279 142.228 64.499 142.282 64.7432C142.34 64.9824 142.445 65.1802 142.597 65.3364C142.729 65.4731 142.88 65.5757 143.051 65.644C143.227 65.7075 143.456 65.7466 143.739 65.7612V65.9297H139.059V65.7612C139.342 65.7466 139.569 65.7075 139.74 65.644C139.916 65.5757 140.07 65.4731 140.202 65.3364C140.358 65.1802 140.463 64.9824 140.517 64.7432C140.57 64.5039 140.597 64.1328 140.597 63.6299V58.2319C140.597 57.812 140.578 57.4897 140.539 57.2651C140.505 57.0356 140.443 56.8501 140.356 56.7085C140.229 56.5132 140.068 56.3691 139.872 56.2764C139.677 56.1787 139.423 56.1201 139.11 56.1006H139.059V55.9321H143.476C144.247 55.9321 144.816 55.9712 145.182 56.0493C145.548 56.1274 145.883 56.2837 146.186 56.5181C146.879 57.0454 147.226 57.7485 147.226 58.6274C147.226 59.521 146.874 60.1753 146.171 60.5903C145.805 60.8052 145.36 60.9346 144.838 60.9785C144.672 60.9932 144.272 61.0005 143.637 61.0005H142.201ZM142.201 60.7661H142.919C143.402 60.7661 143.774 60.7319 144.032 60.6636C144.296 60.5903 144.53 60.4585 144.735 60.2681C145.214 59.8335 145.453 59.2549 145.453 58.5322C145.453 58.1318 145.382 57.7656 145.241 57.4336C145.104 57.0967 144.906 56.8232 144.648 56.6133C144.35 56.3643 143.996 56.2178 143.586 56.1738C143.473 56.1641 143.217 56.1592 142.817 56.1592H142.201V60.7661Z" fill="black"></path><path d="M159.576 65.9297H154.764V65.7612C155.199 65.7222 155.502 65.6489 155.673 65.5415C155.975 65.3511 156.127 65.0874 156.127 64.7505C156.127 64.5503 156.058 64.2817 155.922 63.9448L155.797 63.6372L155.094 61.9087H151.871L151.49 62.9194L151.307 63.3735C151.088 63.9106 150.978 64.333 150.978 64.6406C150.978 64.8213 151.017 64.9897 151.095 65.146C151.178 65.3022 151.288 65.4292 151.425 65.5269C151.615 65.6587 151.859 65.7368 152.157 65.7612V65.9297H148.876V65.7612C149.134 65.7466 149.362 65.6831 149.557 65.5708C149.752 65.4585 149.943 65.2778 150.128 65.0288C150.284 64.8286 150.436 64.5723 150.582 64.2598C150.734 63.9424 150.931 63.4688 151.176 62.8389L153.856 55.9321H154.274L157.46 63.6299C157.699 64.2109 157.889 64.626 158.031 64.875C158.173 65.124 158.326 65.312 158.492 65.439C158.61 65.5269 158.744 65.5952 158.895 65.644C159.047 65.688 159.274 65.7271 159.576 65.7612V65.9297ZM154.977 61.6084L153.439 57.8145L151.989 61.6084H154.977Z" fill="black"></path><path d="M164.574 61.0371V63.6299C164.574 64.1279 164.6 64.499 164.654 64.7432C164.713 64.9824 164.818 65.1802 164.969 65.3364C165.101 65.4731 165.252 65.5757 165.423 65.644C165.599 65.7075 165.828 65.7466 166.112 65.7612V65.9297H161.431V65.7612C161.715 65.7466 161.942 65.7075 162.113 65.644C162.288 65.5757 162.442 65.4731 162.574 65.3364C162.73 65.1802 162.835 64.9824 162.889 64.7432C162.943 64.5039 162.97 64.1328 162.97 63.6299V58.2319C162.97 57.729 162.943 57.3579 162.889 57.1187C162.835 56.8794 162.73 56.6816 162.574 56.5254C162.442 56.3838 162.288 56.2812 162.113 56.2178C161.937 56.1543 161.71 56.1152 161.431 56.1006V55.9321H164.962C165.553 55.9321 165.941 55.9346 166.126 55.9395C166.883 55.9736 167.476 56.0762 167.906 56.2471C168.389 56.4424 168.763 56.7354 169.027 57.126C169.295 57.5117 169.43 57.9609 169.43 58.4736C169.43 59.2354 169.141 59.8457 168.565 60.3047C168.389 60.4414 168.194 60.5537 167.979 60.6416C167.769 60.7295 167.486 60.8125 167.13 60.8906C167.423 61.0127 167.64 61.1396 167.782 61.2715C167.894 61.374 167.996 61.5034 168.089 61.6597C168.182 61.811 168.321 62.082 168.507 62.4727C168.941 63.3662 169.268 64.0205 169.488 64.4355C169.713 64.8457 169.901 65.1436 170.052 65.3291C170.174 65.4805 170.291 65.5854 170.404 65.644C170.521 65.7026 170.68 65.7417 170.88 65.7612V65.9297H168.448C168.326 65.6611 168.248 65.4902 168.214 65.417L167.701 64.2524C167.393 63.5542 167.083 62.9365 166.771 62.3994C166.458 61.8672 166.173 61.5034 165.914 61.3081C165.782 61.2104 165.64 61.1421 165.489 61.103C165.338 61.0591 165.152 61.0371 164.932 61.0371H164.574ZM164.574 60.876H164.852C165.457 60.876 165.889 60.8418 166.148 60.7734C166.412 60.7051 166.659 60.5635 166.888 60.3486C167.401 59.8604 167.657 59.2549 167.657 58.5322C167.657 58.1465 167.581 57.7852 167.43 57.4482C167.284 57.1064 167.078 56.8257 166.815 56.606C166.61 56.4399 166.366 56.3252 166.082 56.2617C165.799 56.1934 165.396 56.1592 164.874 56.1592H164.574V60.876Z" fill="black"></path><path d="M177.474 55.9321V56.1006C177.195 56.1152 176.968 56.1543 176.792 56.2178C176.622 56.2812 176.468 56.3838 176.331 56.5254C176.141 56.7207 176.023 56.9917 175.979 57.3384C175.95 57.5972 175.935 57.895 175.935 58.2319V63.6299C175.935 64.0352 175.955 64.355 175.994 64.5894C176.033 64.8237 176.097 65.0117 176.184 65.1533C176.311 65.3486 176.475 65.4951 176.675 65.5928C176.875 65.6855 177.142 65.7417 177.474 65.7612V65.9297H172.793V65.7612C173.077 65.7466 173.304 65.7075 173.475 65.644C173.65 65.5757 173.804 65.4731 173.936 65.3364C174.092 65.1802 174.197 64.9824 174.251 64.7432C174.305 64.5039 174.331 64.1328 174.331 63.6299V58.2319C174.331 57.729 174.305 57.3579 174.251 57.1187C174.197 56.8794 174.092 56.6816 173.936 56.5254C173.804 56.3838 173.65 56.2812 173.475 56.2178C173.299 56.1543 173.072 56.1152 172.793 56.1006V55.9321H177.474Z" fill="black"></path><path d="M180.208 65.9077L180.23 62.8828H180.398C180.603 63.6543 180.847 64.2622 181.13 64.7065C181.663 65.5269 182.332 65.937 183.137 65.937C183.699 65.937 184.163 65.749 184.529 65.373C184.895 64.9971 185.078 64.521 185.078 63.9448C185.078 63.6958 185.037 63.4419 184.954 63.1831C184.876 62.9243 184.768 62.7021 184.631 62.5166C184.49 62.3262 184.29 62.1431 184.031 61.9673C183.777 61.7915 183.386 61.5693 182.859 61.3008C182.395 61.0664 182.039 60.8687 181.79 60.7075C181.545 60.5464 181.348 60.3828 181.196 60.2168C180.776 59.7578 180.566 59.1987 180.566 58.5396C180.566 58.1343 180.647 57.7437 180.808 57.3677C180.974 56.9917 181.204 56.6694 181.497 56.4009C182.014 55.9224 182.627 55.6831 183.335 55.6831C183.564 55.6831 183.777 55.7075 183.972 55.7563C184.168 55.8003 184.429 55.8906 184.756 56.0273C185 56.125 185.166 56.1885 185.254 56.2178C185.342 56.2422 185.42 56.2544 185.488 56.2544C185.659 56.2544 185.774 56.1299 185.833 55.8809H186.001L186.052 58.7886H185.884C185.752 58.3247 185.637 57.9707 185.54 57.7266C185.447 57.4775 185.334 57.248 185.203 57.0381C184.963 56.6572 184.7 56.3765 184.412 56.1958C184.124 56.0103 183.792 55.9175 183.416 55.9175C182.869 55.9175 182.437 56.103 182.119 56.4741C181.987 56.6255 181.882 56.8037 181.804 57.0088C181.731 57.2139 181.694 57.4189 181.694 57.624C181.694 58.4395 182.219 59.0962 183.269 59.5942L184.302 60.0923C185.098 60.4683 185.671 60.8833 186.023 61.3374C186.423 61.8452 186.624 62.436 186.624 63.1099C186.624 63.5591 186.533 63.9888 186.353 64.3989C186.099 64.9702 185.718 65.4121 185.21 65.7246C184.702 66.0322 184.104 66.186 183.416 66.186C182.786 66.186 182.18 66.0615 181.599 65.8125C181.296 65.6807 181.116 65.605 181.057 65.5854C180.999 65.5659 180.933 65.5562 180.859 65.5562C180.625 65.5562 180.464 65.6733 180.376 65.9077H180.208Z" fill="black"></path></svg>